<?xml version="1.0" standalone="no"?>
<!DOCTYPE svg PUBLIC "-//W3C//DTD SVG 20010904//EN"
 "http://www.w3.org/TR/2001/REC-SVG-20010904/DTD/svg10.dtd">
<svg version="1.0" xmlns="http://www.w3.org/2000/svg"
 width="1000.000000pt" height="1000.000000pt" viewBox="0 0 1000.000000 1000.000000"
 preserveAspectRatio="xMidYMid meet">
<metadata>
Created by potrace 1.14, written by Peter Selinger 2001-2017
</metadata>
<g transform="translate(0.000000,1000.000000) scale(0.100000,-0.100000)"
fill="#000000" stroke="none">
<path d="M1660 7371 c-19 -10 -45 -33 -57 -49 -12 -17 -43 -45 -67 -63 -25
-17 -58 -50 -73 -73 -15 -23 -42 -59 -59 -81 -17 -22 -42 -66 -57 -97 -14 -31
-49 -85 -78 -120 -28 -35 -64 -92 -81 -128 -40 -91 -78 -162 -95 -181 -8 -9
-38 -20 -67 -23 -42 -6 -62 -15 -102 -50 -27 -23 -63 -52 -80 -63 -31 -22 -49
-54 -79 -138 -9 -27 -29 -81 -43 -120 -25 -68 -26 -78 -30 -345 -2 -205 -6
-278 -16 -285 -6 -5 -23 -38 -35 -73 -13 -34 -28 -65 -32 -68 -5 -3 -23 -33
-40 -67 -17 -34 -40 -73 -53 -87 -12 -14 -31 -42 -42 -64 -10 -21 -25 -40 -31
-43 -7 -3 -34 -38 -59 -78 -26 -41 -54 -77 -63 -80 -9 -4 -41 -8 -71 -11 -47
-3 -59 -8 -81 -34 -20 -23 -25 -38 -20 -58 12 -52 37 -75 93 -84 117 -20 142
-20 176 2 38 23 88 98 103 152 5 20 18 43 29 51 11 7 26 30 35 49 8 20 18 38
22 40 10 4 93 129 122 183 12 22 26 47 31 55 5 8 29 49 52 90 l43 75 5 280 c3
197 9 286 18 302 6 12 12 32 12 44 0 20 27 88 63 159 27 53 57 29 57 -45 0
-24 6 -33 33 -45 17 -8 39 -14 47 -15 24 0 57 -82 70 -170 14 -92 27 -128 64
-169 14 -16 26 -37 26 -46 0 -9 14 -28 32 -41 17 -13 59 -48 92 -77 34 -29 89
-69 124 -89 34 -21 62 -41 62 -45 0 -9 46 -80 61 -93 70 -64 138 -136 143
-153 9 -29 -2 -62 -20 -62 -8 0 -14 -9 -14 -20 0 -10 -9 -43 -19 -72 -20 -55
-32 -203 -18 -225 4 -7 17 -38 27 -69 11 -31 37 -84 58 -118 21 -33 41 -72 45
-84 12 -50 -42 -312 -108 -522 -96 -306 -131 -508 -111 -641 7 -47 52 -109 79
-109 9 0 19 -4 22 -10 8 -13 206 -13 274 0 28 5 113 10 188 11 143 1 172 8
220 52 13 11 26 41 32 71 38 189 41 219 41 435 0 174 3 229 15 258 8 19 15 54
15 76 0 58 33 118 93 171 29 25 67 60 84 78 31 31 37 32 118 35 85 2 88 1 178
-45 51 -25 103 -51 116 -57 13 -5 41 -27 62 -48 21 -20 42 -36 46 -35 12 4 84
-78 76 -86 -4 -4 0 -4 8 -1 20 7 93 -71 85 -91 -3 -7 0 -13 6 -11 7 1 15 -11
19 -28 4 -16 7 -26 8 -21 1 10 73 -62 96 -97 9 -14 15 -31 14 -39 -3 -28 2
-37 17 -31 10 3 17 -1 20 -13 3 -11 18 -27 35 -36 16 -9 29 -22 29 -29 0 -8
-4 -8 -15 1 -13 11 -14 10 -9 -4 4 -10 12 -15 18 -13 17 7 58 -39 61 -66 1
-12 3 -26 4 -30 0 -5 9 -7 19 -5 11 2 24 -9 40 -35 12 -22 22 -43 22 -48 0
-16 59 -95 99 -132 22 -21 47 -50 55 -65 8 -15 27 -39 43 -52 16 -14 48 -47
72 -75 23 -27 77 -81 119 -118 107 -95 111 -104 79 -153 -14 -21 -29 -57 -33
-79 -10 -58 -120 -288 -177 -372 -52 -77 -77 -151 -76 -223 1 -64 12 -94 34
-99 11 -2 22 -7 26 -12 3 -5 129 -10 280 -12 204 -3 284 -7 312 -18 20 -8 37
-17 37 -21 0 -4 27 -10 60 -14 33 -4 60 -10 60 -13 0 -11 89 -71 105 -71 8 0
15 -6 15 -14 0 -20 20 -25 81 -21 100 5 202 56 234 116 8 14 34 51 60 82 33
41 48 70 55 107 13 66 24 86 76 138 l44 43 97 -1 c213 -3 236 -1 229 15 -4 12
3 15 32 17 60 2 66 4 90 17 12 6 28 9 35 5 6 -4 9 -3 4 1 -15 17 226 78 266
67 4 -1 7 2 7 7 0 26 151 71 238 71 24 0 55 6 70 13 15 7 45 14 67 16 62 4
167 30 185 46 23 21 90 47 106 41 7 -3 14 0 16 6 2 6 11 12 19 14 7 1 66 14
129 29 63 15 126 29 140 30 14 2 28 4 32 4 4 1 13 7 20 14 19 20 76 38 80 26
2 -6 14 8 27 31 21 37 23 56 25 173 2 126 10 178 43 293 25 86 52 88 211 12
61 -28 82 -43 78 -54 -3 -8 1 -17 8 -20 8 -3 22 -24 31 -46 9 -23 47 -74 84
-115 45 -48 83 -103 110 -157 23 -45 41 -85 41 -89 0 -9 103 -151 113 -155 4
-2 7 -9 7 -16 0 -7 13 -31 29 -53 16 -22 57 -91 91 -153 78 -143 146 -215 213
-225 71 -11 328 0 362 15 17 7 35 14 42 14 15 1 63 65 63 82 0 7 11 25 25 40
l25 27 -2 447 c-2 346 -6 450 -16 462 -7 9 -14 29 -17 44 -5 40 -55 145 -65
139 -12 -8 -46 43 -60 93 -7 23 -19 42 -26 42 -18 0 -22 65 -18 308 l2 212 31
39 c31 39 51 83 86 191 40 119 40 120 93 121 223 3 306 15 407 60 87 38 177
59 258 59 70 0 85 4 136 32 43 24 60 40 67 62 6 20 22 38 48 53 47 26 61 50
71 121 4 28 11 52 16 52 15 0 38 44 53 105 31 123 26 266 -10 296 -8 6 -14 20
-14 31 0 34 -56 137 -158 290 -41 63 -78 78 -190 78 -68 0 -104 -4 -118 -14
-11 -8 -37 -18 -59 -22 -21 -4 -66 -18 -99 -30 -38 -15 -80 -24 -115 -24 -108
0 -249 -39 -328 -92 -23 -15 -46 -28 -52 -28 -25 0 -183 -94 -251 -149 -46
-37 -85 -61 -102 -61 -17 0 -70 -45 -78 -66 -5 -12 -21 -24 -38 -27 -28 -6
-183 -79 -250 -118 -18 -10 -64 -26 -102 -35 -39 -9 -76 -22 -84 -29 -31 -31
-83 -55 -122 -55 -34 0 -51 9 -109 55 -38 30 -74 55 -80 55 -14 1 -68 88 -60
99 3 6 -7 23 -23 39 -29 30 -68 141 -58 167 2 7 -3 23 -13 34 -10 11 -30 62
-45 113 -31 104 -53 156 -73 176 -7 7 -13 19 -13 26 0 19 -30 76 -40 76 -13 0
-40 60 -40 91 0 15 -4 31 -10 34 -6 3 -10 13 -10 22 0 8 -26 39 -57 69 -94 88
-233 123 -455 115 -37 -1 -91 -50 -128 -117 -18 -30 -35 -54 -40 -54 -4 0 -27
-26 -51 -57 -24 -32 -56 -69 -72 -82 -60 -50 -62 -63 -61 -326 0 -265 6 -322
34 -355 11 -13 17 -26 15 -31 -9 -13 15 -54 38 -64 12 -6 23 -20 25 -33 2 -12
12 -27 23 -32 10 -6 19 -16 19 -23 0 -22 77 -91 85 -77 5 9 15 4 31 -14 13
-14 24 -30 24 -36 0 -5 6 -10 13 -10 19 0 47 -33 47 -56 0 -14 3 -15 9 -6 10
17 31 -7 34 -40 1 -13 15 -45 31 -73 17 -27 31 -63 33 -80 2 -16 10 -35 18
-41 8 -6 12 -14 8 -18 -4 -4 -1 -11 7 -16 24 -15 27 -355 4 -435 -68 -240 -60
-221 -117 -253 -29 -16 -94 -42 -145 -58 -108 -32 -122 -29 -134 32 -9 44 -58
176 -68 184 -3 3 -7 22 -8 44 -3 49 -43 126 -81 158 -35 30 -50 79 -52 171 -1
37 -5 64 -9 62 -11 -7 -20 21 -20 60 0 18 -6 35 -14 38 -8 3 -15 32 -20 81 -4
42 -13 94 -21 116 -8 22 -28 106 -44 188 -17 81 -37 168 -46 192 -19 54 -56
110 -72 110 -18 0 -51 64 -69 137 -19 78 -39 129 -54 138 -5 3 -10 15 -10 25
0 26 -21 71 -30 65 -9 -5 -18 24 -25 83 -3 24 -48 124 -106 239 -95 186 -122
235 -105 188 10 -29 -3 -12 -62 75 -51 78 -136 230 -127 230 3 0 -2 8 -9 18
-57 70 -69 82 -78 82 -5 0 -28 13 -51 28 -67 45 -226 120 -323 151 -49 16
-114 42 -144 57 -54 29 -57 29 -255 32 -110 2 -214 1 -231 -2 -16 -4 -60 -25
-97 -49 -36 -23 -85 -54 -109 -69 -24 -15 -70 -50 -103 -78 -88 -74 -109 -81
-233 -79 -63 1 -113 6 -121 13 -9 7 -95 12 -260 14 -135 1 -253 5 -261 9 -8 3
-18 5 -22 5 -5 -1 -8 3 -8 8 0 6 -7 10 -15 10 -25 0 -95 39 -157 87 -31 24
-83 57 -115 73 -59 31 -130 91 -159 135 -9 14 -20 25 -23 25 -4 0 -30 20 -57
45 -29 27 -62 47 -83 52 -20 3 -41 11 -48 17 -30 26 -109 81 -152 103 -58 32
-215 54 -406 59 -174 4 -193 3 -225 -15z m416 -165 c96 -10 147 -29 220 -85
37 -28 89 -58 115 -66 37 -13 70 -39 151 -119 106 -105 145 -136 173 -136 16
0 147 -95 153 -111 2 -5 7 -7 11 -5 4 3 27 -11 50 -30 27 -20 55 -34 72 -34
15 0 38 -4 51 -9 13 -5 32 -13 43 -16 11 -4 112 -7 225 -6 156 2 221 -1 270
-13 78 -19 292 -21 341 -4 61 21 153 80 188 120 19 22 53 49 75 60 23 11 63
36 90 55 l48 35 170 -2 c141 0 177 -4 212 -19 22 -10 70 -28 106 -40 127 -44
216 -85 278 -128 35 -24 67 -43 72 -43 16 0 80 -61 80 -76 0 -20 51 -124 61
-124 5 0 9 -4 9 -9 0 -4 15 -24 33 -43 19 -20 67 -102 108 -184 41 -82 84
-163 96 -181 39 -57 70 -117 70 -136 0 -24 37 -137 45 -137 4 0 16 -26 28 -57
12 -32 25 -60 30 -63 4 -3 10 -19 13 -37 12 -73 36 -125 111 -231 26 -39 49
-118 87 -302 6 -30 17 -77 24 -105 8 -27 17 -70 20 -95 4 -25 16 -70 27 -100
13 -35 22 -90 26 -152 2 -54 8 -98 13 -98 4 0 11 -14 14 -32 9 -41 45 -96 67
-103 11 -4 16 -16 16 -35 -1 -16 3 -35 8 -42 6 -7 20 -40 33 -73 12 -33 36
-86 52 -117 16 -31 29 -66 29 -78 0 -11 6 -31 14 -43 8 -12 22 -45 31 -74 32
-100 102 -125 207 -75 24 11 61 25 83 31 22 6 65 24 95 41 67 36 65 35 120 52
53 15 68 40 125 208 54 156 58 178 64 385 5 172 4 197 -15 270 -11 44 -31 99
-42 122 -12 23 -22 48 -22 54 0 7 -7 20 -15 29 -9 10 -17 31 -19 47 -7 55 -48
113 -98 139 -55 30 -211 182 -253 248 -50 81 -57 119 -53 331 l3 190 59 70
c32 39 86 103 120 143 l61 73 88 -2 c54 -2 91 -7 98 -15 5 -6 25 -15 44 -18
41 -8 75 -48 75 -88 0 -34 34 -105 61 -127 11 -9 23 -38 28 -66 6 -34 17 -56
35 -70 14 -11 26 -25 26 -30 0 -6 13 -42 29 -82 16 -39 43 -118 60 -175 41
-141 125 -299 192 -360 29 -27 58 -48 66 -48 7 0 29 -15 48 -33 20 -19 52 -39
71 -45 47 -14 181 -12 220 4 17 7 33 11 36 9 2 -3 20 11 38 30 24 25 43 35 64
35 49 0 105 19 149 51 22 16 46 29 54 29 7 0 30 11 51 24 21 13 71 36 112 50
47 17 91 42 120 67 62 56 213 165 238 173 11 4 23 13 26 21 3 8 11 15 18 15 8
0 38 13 68 29 96 52 152 78 205 96 11 4 65 9 120 11 55 3 109 9 120 14 131 58
238 82 300 66 29 -7 106 -118 137 -198 49 -127 50 -133 45 -193 -5 -61 -32
-133 -55 -148 -7 -5 -10 -12 -7 -18 4 -5 -1 -19 -9 -31 -9 -12 -16 -30 -16
-40 0 -10 -7 -18 -15 -18 -8 0 -15 -7 -15 -15 0 -8 -6 -15 -14 -15 -8 0 -17
-9 -21 -20 -12 -39 -59 -60 -142 -66 -57 -4 -106 -15 -186 -45 -177 -66 -191
-69 -340 -69 -139 0 -154 -3 -227 -45 -14 -8 -25 -19 -25 -25 0 -6 -10 -19
-21 -28 -31 -24 -74 -116 -81 -170 -5 -48 -17 -76 -65 -153 -38 -62 -45 -132
-42 -389 4 -255 7 -278 35 -314 11 -14 20 -28 19 -31 -2 -24 3 -35 24 -58 42
-45 66 -85 66 -109 0 -12 11 -47 25 -76 l25 -54 0 -389 0 -388 -30 -31 -29
-30 -113 1 c-62 1 -124 4 -137 8 -17 4 -34 26 -55 66 -17 33 -34 61 -38 63 -5
2 -8 13 -8 25 0 12 -10 38 -22 57 -41 65 -47 75 -64 108 -10 17 -23 32 -29 32
-12 0 -41 53 -51 93 -3 15 -22 39 -40 54 -19 14 -34 33 -34 43 0 10 -10 31
-23 47 -13 15 -26 36 -30 45 -11 30 -117 166 -143 183 -13 8 -24 23 -24 33 0
9 -7 26 -15 36 -8 11 -15 26 -15 33 0 19 -111 122 -131 123 -9 0 -22 7 -29 15
-7 8 -19 15 -27 15 -8 0 -25 11 -38 24 -13 13 -43 29 -67 34 -24 5 -72 17
-107 27 -60 16 -66 16 -108 0 -41 -16 -48 -24 -73 -79 -15 -33 -35 -95 -45
-136 -9 -41 -23 -95 -31 -120 -9 -28 -14 -89 -14 -163 0 -64 -3 -116 -7 -115
-5 1 -24 -5 -43 -13 -19 -9 -69 -24 -110 -34 -41 -10 -100 -24 -130 -32 -30
-8 -73 -19 -94 -24 -22 -6 -69 -24 -105 -41 -36 -16 -93 -34 -126 -38 -33 -4
-73 -13 -88 -19 -16 -6 -44 -11 -62 -11 -19 0 -67 -5 -107 -11 -40 -6 -88 -13
-106 -16 -24 -3 -32 -8 -28 -19 3 -8 4 -14 2 -14 -13 0 -236 -60 -256 -69 -14
-6 -70 -22 -125 -37 -94 -24 -114 -25 -324 -24 -123 0 -228 3 -233 6 -5 3 -73
9 -152 14 -78 4 -151 12 -162 18 -36 20 -91 43 -100 41 -31 -6 -67 4 -93 27
-25 21 -31 33 -31 66 0 21 -4 47 -9 57 -23 43 -201 212 -263 249 -69 41 -171
124 -218 175 -14 16 -44 50 -67 75 -24 26 -60 70 -80 99 -21 28 -51 57 -68 65
-21 9 -39 33 -66 86 -21 40 -60 98 -88 127 -28 30 -60 74 -71 99 -16 39 -60
81 -60 59 0 -4 -11 10 -23 32 -13 22 -47 69 -75 105 -29 35 -62 85 -74 110
-22 44 -32 55 -141 153 -31 29 -79 73 -105 98 -34 32 -71 54 -123 74 -41 15
-92 41 -114 56 -57 39 -132 52 -266 47 -120 -5 -141 -11 -197 -59 -18 -16 -38
-29 -45 -29 -17 0 -63 -49 -71 -76 -4 -12 -21 -42 -39 -65 -48 -66 -76 -130
-77 -172 0 -21 -7 -52 -16 -69 -13 -26 -17 -79 -20 -312 -3 -194 -8 -296 -18
-331 l-13 -50 -144 -7 c-83 -4 -145 -12 -147 -18 -2 -6 -41 -10 -93 -10 l-89
0 0 84 c0 109 10 153 125 536 22 74 42 164 86 390 6 30 17 64 24 76 7 11 14
29 16 40 4 26 -27 94 -43 94 -7 0 -39 47 -71 104 -50 90 -57 110 -57 157 0 36
8 69 23 99 21 42 25 45 71 51 37 4 55 12 72 33 49 56 32 88 -133 240 -70 66
-145 144 -166 175 -48 69 -77 101 -93 101 -6 0 -35 16 -64 35 -29 19 -56 35
-61 35 -5 0 -15 13 -23 28 -8 16 -31 41 -50 56 -24 18 -36 35 -36 51 0 13 -6
28 -12 32 -35 22 -60 77 -69 151 -12 106 -35 212 -48 225 -6 6 -11 27 -12 47
-1 19 -4 46 -8 60 -9 31 4 81 24 93 8 4 15 14 15 20 0 33 76 187 114 232 23
27 63 90 89 138 25 48 57 102 69 119 39 52 159 168 185 178 17 7 253 4 329 -4z
m2350 -4192 c38 -29 44 -60 19 -97 -11 -17 -13 -35 -7 -67 7 -44 8 -44 82 -75
41 -17 93 -40 115 -52 22 -11 62 -23 88 -27 27 -3 70 -16 95 -28 39 -18 70
-22 184 -26 105 -3 140 -7 149 -19 9 -10 9 -17 2 -21 -6 -4 -19 -40 -28 -80
-27 -110 -95 -199 -166 -217 -30 -7 -87 17 -135 58 -16 14 -52 32 -79 40 -28
9 -83 27 -122 41 -69 25 -83 26 -275 26 -112 0 -209 4 -217 9 -19 12 -8 48 33
109 36 53 89 160 101 202 4 14 13 32 20 40 15 17 48 102 65 168 13 50 27 53
76 16z"/>
<path d="M7567 4672 c-31 -32 -34 -67 -10 -102 24 -35 33 -40 75 -40 61 0 103
62 78 112 -24 44 -42 58 -80 58 -27 0 -43 -7 -63 -28z"/>
<path d="M8190 4608 c-23 -38 -25 -60 -8 -91 18 -35 40 -46 84 -45 34 1 44 6
61 32 21 33 24 87 5 94 -7 2 -12 10 -12 17 0 15 -31 25 -78 25 -26 0 -36 -6
-52 -32z"/>
<path d="M7550 5421 c0 -5 5 -13 10 -16 6 -3 10 -2 10 4 0 5 -4 13 -10 16 -5
3 -10 2 -10 -4z"/>
<path d="M3626 3825 c4 -8 11 -15 16 -15 6 0 5 6 -2 15 -7 8 -14 15 -16 15 -2
0 -1 -7 2 -15z"/>
</g>
</svg>
